<?xml version="1.0" encoding="UTF-8" standalone="no"?><!DOCTYPE svg PUBLIC "-//W3C//DTD SVG 1.1//EN" "http://www.w3.org/Graphics/SVG/1.1/DTD/svg11.dtd"><svg width="100%" height="100%" viewBox="0 0 207 207" version="1.1" xmlns="http://www.w3.org/2000/svg" xmlns:xlink="http://www.w3.org/1999/xlink" xml:space="preserve" xmlns:serif="http://www.serif.com/" style="fill-rule:evenodd;clip-rule:evenodd;stroke-linejoin:round;stroke-miterlimit:2;"><g><g><g><path d="M201.587,27.596c6.31,-6.309 6.31,-16.554 0,-22.864c-6.309,-6.309 -16.554,-6.309 -22.864,0l-173.991,173.991c-6.309,6.31 -6.309,16.555 0,22.864c6.31,6.31 16.555,6.31 22.864,0l173.991,-173.991Z" style="fill:#fff;"/></g></g><g><path d="M27.596,4.732c-6.309,-6.309 -16.554,-6.309 -22.864,0c-6.309,6.31 -6.309,16.555 0,22.864l173.991,173.991c6.31,6.31 16.555,6.31 22.864,0c6.31,-6.309 6.31,-16.554 0,-22.864l-173.991,-173.991Z" style="fill:#fff;"/></g></g></svg>