<?xml version="1.0" encoding="UTF-8" standalone="no"?><!DOCTYPE svg PUBLIC "-//W3C//DTD SVG 1.1//EN" "http://www.w3.org/Graphics/SVG/1.1/DTD/svg11.dtd"><svg width="100%" height="100%" viewBox="0 0 470 320" version="1.1" xmlns="http://www.w3.org/2000/svg" xmlns:xlink="http://www.w3.org/1999/xlink" xml:space="preserve" xmlns:serif="http://www.serif.com/" style="fill-rule:evenodd;clip-rule:evenodd;stroke-linejoin:round;stroke-miterlimit:2;"><path d="M234.667,96c-35.307,0 -64,28.693 -64,64c0,35.307 28.693,64 64,64c35.307,0 64,-28.693 64,-64c0,-35.307 -28.694,-64 -64,-64Z" style="fill:#272838;fill-rule:nonzero;"/><path d="M234.667,0c-106.667,0 -197.76,66.346 -234.667,160c36.907,93.653 128,160 234.667,160c106.773,0 197.76,-66.347 234.667,-160c-36.907,-93.654 -127.894,-160 -234.667,-160Zm0,266.666c-58.88,0 -106.667,-47.787 -106.667,-106.667c0,-58.88 47.787,-106.666 106.667,-106.666c58.88,0 106.667,47.787 106.667,106.667c0,58.88 -47.787,106.666 -106.667,106.666Z" style="fill:#272838;fill-rule:nonzero;"/></svg>