<?xml version="1.0" encoding="UTF-8" standalone="no"?><!DOCTYPE svg PUBLIC "-//W3C//DTD SVG 1.1//EN" "http://www.w3.org/Graphics/SVG/1.1/DTD/svg11.dtd"><svg width="100%" height="100%" viewBox="0 0 470 406" version="1.1" xmlns="http://www.w3.org/2000/svg" xmlns:xlink="http://www.w3.org/1999/xlink" xml:space="preserve" xmlns:serif="http://www.serif.com/" style="fill-rule:evenodd;clip-rule:evenodd;stroke-linejoin:round;stroke-miterlimit:2;"><path d="M231.147,128.32l67.2,67.2l0.32,-3.52c0,-35.307 -28.693,-64 -64,-64l-3.52,0.32Z" style="fill:#272838;fill-rule:nonzero;"/><path d="M234.667,85.334c58.88,0 106.667,47.787 106.667,106.667c0,13.76 -2.773,26.88 -7.573,38.933l62.4,62.4c32.213,-26.88 57.6,-61.653 73.28,-101.333c-37.013,-93.653 -128,-160 -234.773,-160c-29.867,0 -58.453,5.333 -85.013,14.933l46.08,45.973c12.052,-4.693 25.172,-7.573 38.932,-7.573Z" style="fill:#272838;fill-rule:nonzero;"/><path d="M21.333,27.2l58.347,58.347c-35.2,27.52 -63.04,64.107 -79.68,106.453c36.907,93.653 128,160 234.667,160c33.067,0 64.64,-6.4 93.547,-18.027l9.067,9.067l62.187,62.293l27.2,-27.093l-378.135,-378.24l-27.2,27.2Zm117.974,117.867l32.96,32.96c-0.96,4.587 -1.6,9.173 -1.6,13.973c0,35.307 28.693,64 64,64c4.8,0 9.387,-0.64 13.867,-1.6l32.96,32.96c-14.187,7.04 -29.973,11.307 -46.827,11.307c-58.88,0 -106.667,-47.787 -106.667,-106.667c0,-16.853 4.267,-32.64 11.307,-46.933Z" style="fill:#272838;fill-rule:nonzero;"/></svg>